<svg width="1600" height="960" viewBox="0 0 1600 960" fill="none" xmlns="http://www.w3.org/2000/svg">
  <defs>
    <linearGradient id="bgBB" x1="120" y1="80" x2="1480" y2="920" gradientUnits="userSpaceOnUse">
      <stop stop-color="#08101B"/>
      <stop offset="1" stop-color="#0F1726"/>
    </linearGradient>
    <linearGradient id="bottomFadeBB" x1="800" y1="620" x2="800" y2="960" gradientUnits="userSpaceOnUse">
      <stop stop-color="#0B112000" />
      <stop offset="1" stop-color="#050912" />
    </linearGradient>
    <linearGradient id="glassBB" x1="124" y1="700" x2="1476" y2="940" gradientUnits="userSpaceOnUse">
      <stop stop-color="#141B2C" stop-opacity="0.97"/>
      <stop offset="1" stop-color="#0F1624" stop-opacity="0.97"/>
    </linearGradient>
    <linearGradient id="innerBB" x1="152" y1="726" x2="1448" y2="836" gradientUnits="userSpaceOnUse">
      <stop stop-color="#101827"/>
      <stop offset="1" stop-color="#0D1523"/>
    </linearGradient>
  </defs>

  <rect width="1600" height="960" fill="url(#bgBB)"/>
  <circle cx="1180" cy="180" r="240" fill="#7C3AED" opacity="0.08"/>
  <circle cx="260" cy="760" r="260" fill="#2563EB" opacity="0.08"/>
  <rect x="0" y="620" width="1600" height="340" fill="url(#bottomFadeBB)"/>

  <rect x="0" y="0" width="1600" height="88" fill="#0D131D"/>
  <rect x="62" y="18" width="250" height="52" rx="14" fill="#1D2333" stroke="#30384E"/>
  <text x="98" y="52" fill="#F8FAFC" font-family="Segoe UI, sans-serif" font-size="18" font-weight="700">Project</text>

  <text x="800" y="210" text-anchor="middle" fill="#F8FAFC" font-family="Georgia, serif" font-size="62" font-weight="700">Option B</text>
  <text x="800" y="258" text-anchor="middle" fill="#9AA4B5" font-family="Segoe UI, sans-serif" font-size="28" font-weight="500">Dark Glass, Bottom Aligned</text>
  <text x="800" y="328" text-anchor="middle" fill="#B6C0D2" font-family="Segoe UI, sans-serif" font-size="22" font-weight="500">Same dark language, but the composer is pinned to the bottom like Codex.</text>

  <rect x="124" y="696" width="1352" height="236" rx="34" fill="url(#glassBB)" stroke="#2F3B53" stroke-width="2"/>
  <rect x="152" y="724" width="1296" height="122" rx="28" fill="url(#innerBB)" stroke="#263246"/>
  <text x="184" y="790" fill="#738198" font-family="Segoe UI, sans-serif" font-size="26" font-weight="500">Ask Axon to debug, implement, review, or explain</text>

  <rect x="152" y="872" width="44" height="44" rx="22" fill="#1A2232" stroke="#314056"/>
  <path d="M174 885V903" stroke="#C7D2E2" stroke-width="2.4" stroke-linecap="round"/>
  <path d="M165 894H183" stroke="#C7D2E2" stroke-width="2.4" stroke-linecap="round"/>

  <rect x="212" y="872" width="132" height="44" rx="22" fill="#182131" stroke="#2E3B52"/>
  <text x="254" y="900" fill="#E2E8F0" font-family="Segoe UI, sans-serif" font-size="18" font-weight="600">gpt-5</text>
  <path d="M318 889L326 897L334 889" stroke="#AAB7CA" stroke-width="2.2" stroke-linecap="round" stroke-linejoin="round"/>

  <rect x="358" y="872" width="142" height="44" rx="22" fill="#182131" stroke="#2E3B52"/>
  <text x="396" y="900" fill="#E2E8F0" font-family="Segoe UI, sans-serif" font-size="18" font-weight="600">Think High</text>
  <path d="M474 889L482 897L490 889" stroke="#AAB7CA" stroke-width="2.2" stroke-linecap="round" stroke-linejoin="round"/>

  <rect x="514" y="872" width="126" height="44" rx="22" fill="#182131" stroke="#2E3B52"/>
  <text x="556" y="900" fill="#E2E8F0" font-family="Segoe UI, sans-serif" font-size="18" font-weight="600">YOLO</text>
  <path d="M612 889L620 897L628 889" stroke="#AAB7CA" stroke-width="2.2" stroke-linecap="round" stroke-linejoin="round"/>

  <rect x="654" y="872" width="116" height="44" rx="22" fill="#182131" stroke="#2E3B52"/>
  <text x="692" y="900" fill="#E2E8F0" font-family="Segoe UI, sans-serif" font-size="18" font-weight="600">More</text>
  <path d="M743 889L751 897L759 889" stroke="#AAB7CA" stroke-width="2.2" stroke-linecap="round" stroke-linejoin="round"/>

  <rect x="1268" y="868" width="52" height="52" rx="26" fill="#101827" stroke="#3C4A62"/>
  <path d="M1294 880V905" stroke="#A9B5C8" stroke-width="2.8" stroke-linecap="round"/>
  <path d="M1283 916C1284 925 1292 932 1301 932C1310 932 1318 925 1319 916" stroke="#A9B5C8" stroke-width="2.8" stroke-linecap="round"/>

  <circle cx="1410" cy="894" r="28" fill="#1FB56C"/>
  <path d="M1410 880V906" stroke="white" stroke-width="3.2" stroke-linecap="round"/>
  <path d="M1399 891L1410 880L1421 891" stroke="white" stroke-width="3.2" stroke-linecap="round" stroke-linejoin="round"/>

  <rect x="1202" y="662" width="220" height="38" rx="19" fill="#101827" stroke="#2B3850"/>
  <circle cx="1230" cy="681" r="5" fill="#22C55E"/>
  <text x="1244" y="687" fill="#E2E8F0" font-family="Segoe UI, sans-serif" font-size="15" font-weight="600">Context healthy</text>

  <text x="124" y="648" fill="#CBD5E1" font-family="Segoe UI, sans-serif" font-size="18" font-weight="600">Bottom anchored, lighter hierarchy, no giant white slab.</text>
</svg>
