<svg width="1600" height="960" viewBox="0 0 1600 960" fill="none" xmlns="http://www.w3.org/2000/svg">
  <defs>
    <linearGradient id="bgD" x1="180" y1="80" x2="1420" y2="900" gradientUnits="userSpaceOnUse">
      <stop stop-color="#07101C"/>
      <stop offset="1" stop-color="#10192C"/>
    </linearGradient>
    <linearGradient id="cardD" x1="280" y1="432" x2="1320" y2="812" gradientUnits="userSpaceOnUse">
      <stop stop-color="#F6F3ED"/>
      <stop offset="1" stop-color="#ECE7DF"/>
    </linearGradient>
  </defs>
  <rect width="1600" height="960" fill="url(#bgD)"/>
  <circle cx="1260" cy="180" r="250" fill="#38BDF8" opacity="0.06"/>
  <circle cx="300" cy="820" r="260" fill="#22C55E" opacity="0.05"/>

  <text x="800" y="220" text-anchor="middle" fill="#F8FAFC" font-family="Georgia, serif" font-size="64" font-weight="700">Option D</text>
  <text x="800" y="272" text-anchor="middle" fill="#9AA4B5" font-family="Segoe UI, sans-serif" font-size="28" font-weight="500">Focus Composer</text>
  <text x="800" y="344" text-anchor="middle" fill="#B6C0D2" font-family="Segoe UI, sans-serif" font-size="22" font-weight="500">The composer becomes the hero, not just a footer.</text>

  <rect x="278" y="430" width="1044" height="342" rx="42" fill="url(#cardD)" stroke="#D9D2C8" stroke-width="2"/>
  <rect x="320" y="470" width="220" height="54" rx="27" fill="#FFFDF9" stroke="#D8D0C5"/>
  <circle cx="356" cy="497" r="16" fill="#111827"/>
  <text x="382" y="505" fill="#2F2A24" font-family="Segoe UI, sans-serif" font-size="20" font-weight="600">image.png</text>

  <text x="320" y="610" fill="#2F2A24" font-family="Segoe UI, sans-serif" font-size="34" font-weight="500">Describe the task, attach context, then send.</text>
  <text x="320" y="654" fill="#7F766D" font-family="Segoe UI, sans-serif" font-size="22" font-weight="500">This option gives the input more authority in the welcome screen.</text>

  <circle cx="352" cy="718" r="24" fill="#FFFDF9" stroke="#D7CFC4"/>
  <path d="M352 706V730" stroke="#7E756A" stroke-width="2.6" stroke-linecap="round"/>
  <path d="M340 718H364" stroke="#7E756A" stroke-width="2.6" stroke-linecap="round"/>

  <rect x="388" y="696" width="126" height="44" rx="22" fill="#FFFDF9" stroke="#D7CFC4"/>
  <text x="426" y="724" fill="#4E473F" font-family="Segoe UI, sans-serif" font-size="18" font-weight="600">GPT-5</text>
  <rect x="528" y="696" width="132" height="44" rx="22" fill="#FFFDF9" stroke="#D7CFC4"/>
  <text x="566" y="724" fill="#4E473F" font-family="Segoe UI, sans-serif" font-size="18" font-weight="600">Think High</text>
  <rect x="674" y="696" width="114" height="44" rx="22" fill="#FFFDF9" stroke="#D7CFC4"/>
  <text x="711" y="724" fill="#4E473F" font-family="Segoe UI, sans-serif" font-size="18" font-weight="600">YOLO</text>
  <rect x="802" y="696" width="112" height="44" rx="22" fill="#F1EBE2" stroke="#CDBFAE"/>
  <text x="839" y="724" fill="#3E372F" font-family="Segoe UI, sans-serif" font-size="18" font-weight="700">More</text>

  <path d="M1248 696C1263.46 696 1276 708.54 1276 724C1276 739.46 1263.46 752 1248 752C1232.54 752 1220 739.46 1220 724C1220 708.54 1232.54 696 1248 696Z" fill="#171717"/>
  <path d="M1248 710V736" stroke="white" stroke-width="3.2" stroke-linecap="round"/>
  <path d="M1237 721L1248 710L1259 721" stroke="white" stroke-width="3.2" stroke-linecap="round" stroke-linejoin="round"/>

  <text x="280" y="816" fill="#CBD5E1" font-family="Segoe UI, sans-serif" font-size="18" font-weight="600">Best when you want the welcome state to feel premium and intentionally guided.</text>
</svg>
